GIL01_fast5_RRA_states
nRows=5
nColumns=47

# SIMM Motion File Header:
name GIL01_fast5_RRA_states
datacolumns 47
datarows 5
otherdata 1
range 0.31233000000000016000 0.31433000000000016000
endheader
time	pelvis_tx	pelvis_ty	pelvis_tz	pelvis_tilt	pelvis_list	pelvis_rotation	hip_flexion_r	hip_adduction_r	hip_rotation_r	knee_angle_r	ankle_angle_r	subtalar_angle_r	mtp_angle_r	hip_flexion_l	hip_adduction_l	hip_rotation_l	knee_angle_l	ankle_angle_l	subtalar_angle_l	mtp_angle_l	lumbar_extension	lumbar_bending	lumbar_rotation	pelvis_tx_u	pelvis_ty_u	pelvis_tz_u	pelvis_tilt_u	pelvis_list_u	pelvis_rotation_u	hip_flexion_r_u	hip_adduction_r_u	hip_rotation_r_u	knee_angle_r_u	ankle_angle_r_u	subtalar_angle_r_u	mtp_angle_r_u	hip_flexion_l_u	hip_adduction_l_u	hip_rotation_l_u	knee_angle_l_u	ankle_angle_l_u	subtalar_angle_l_u	mtp_angle_l_u	lumbar_extension_u	lumbar_bending_u	lumbar_rotation_u
      0.31233000000000016000	      0.80061127291989498000	      0.80491418634145517000	     -0.21294528645228414000	     -6.44205430097556600000	     -0.40946129906970552000	     -2.57556384133441000000	      3.97569608468090860000	      7.63634591094140800000	      4.84860455676291300000	     -7.36865222579130030000	      7.57155357202452170000	      0.00000000000004641211	     -0.00000000000013802620	     31.24076933309471100000	     -4.47844608406331530000	      3.34348030929688060000	    -46.27468214273704200000	     -4.06912919265480430000	     -0.00000000000000888599	     -0.00000000000000113444	      2.89085819815524790000	     -3.63514377410157110000	      3.23834024138607020000	      1.20603216507579010000	     -0.05008457923532073200	      0.09154022990389953900	    -10.99506788601180300000	     48.61046182915302400000	    -76.27992742384370200000	   -118.78385252336263000000	    -49.60018005363173900000	     56.57258984444619900000	     61.75546435226954900000	     37.25906458568508800000	      0.00000000000053770325	     -0.00000000000132858124	     59.32085385244742100000	     19.45614044562766800000	    -36.28549402210345000000	    358.01478488006114000000	     69.78251669958542900000	     -0.00000000000007412256	      0.00000000000000116573	     -3.54724454914159760000	    -42.12457319770190600000	     63.53987571165625100000
      0.31283000000000016000	      0.80121435533591812000	      0.80488863689794199000	     -0.21289985978447909000	     -6.44757729027228340000	     -0.38528879349631534000	     -2.61366420932020030000	      3.91639980223966870000	      7.61164463338659570000	      4.87648643188279160000	     -7.33788177024979400000	      7.59017081333709330000	      0.00000000000004667554	     -0.00000000000013868622	     31.27029106832227300000	     -4.46884447190092350000	      3.32516530603068270000	    -46.09533402692228100000	     -4.03461058825214990000	     -0.00000000000000892292	     -0.00000000000000113388	      2.88913043472805240000	     -3.65595275745881580000	      3.27000782100358340000	      1.20629922210578930000	     -0.05211285765684729000	      0.09016874899222526700	    -11.09717759583280700000	     48.07847823619846400000	    -76.12059975855007100000	   -118.40184908597224000000	    -49.20286927422798600000	     54.95281389688322100000	     61.32761207112501700000	     37.20886198919737400000	      0.00000000000052327596	     -0.00000000000132079915	     58.76690764116480600000	     18.94938915033167200000	    -36.97470223572402400000	    359.37572113238667000000	     68.29287280446453700000	     -0.00000000000007468295	      0.00000000000000185601	     -3.36336830471547450000	    -41.11121901422283300000	     63.13091459245230700000
      0.31333000000000016000	      0.80181757386302255000	      0.80486207382493113000	     -0.21285511539313887000	     -6.45315176635161160000	     -0.36138390410181664000	     -2.65168349839951210000	      3.85729366800056090000	      7.58714510941174150000	      4.90355524819601920000	     -7.30732338194695520000	      7.60876140142891440000	      0.00000000000004693273	     -0.00000000000013933615	     31.29953706173127200000	     -4.45949761103543450000	      3.30650541228214980000	    -45.91530838680624500000	     -4.00083534567561560000	     -0.00000000000000896030	     -0.00000000000000113212	      2.88749526922726880000	     -3.67625484960461830000	      3.30147162985948170000	      1.20657660496485410000	     -0.05413908676312585000	      0.08881113062997245100	    -11.20101382333943500000	     47.53999566027159300000	    -75.95561604225905200000	   -118.02325179265361000000	    -48.79315243918757300000	     53.32030492490036300000	     60.90715118939773700000	     37.15246343422027300000	      0.00000000000050967970	     -0.00000000000125980477	     58.21788810466229300000	     18.43714177737560400000	    -37.66507817610325800000	    360.72486440463530000000	     66.80907591530034000000	     -0.00000000000007539433	      0.00000000000000330312	     -3.17685606116613650000	    -40.09700500153044800000	     62.72479716135324400000
      0.31383000000000016000	      0.80242093365694045000	      0.80483449818111108000	     -0.21281104629939154000	     -6.45877858544778770000	     -0.33774985143742037000	     -2.68961890193839540000	      3.79837595956914690000	      7.56285351794179040000	      4.92980472372034040000	     -7.27697336709015460000	      7.62732225601183970000	      0.00000000000004718970	     -0.00000000000013996593	     31.32850976435492600000	     -4.45040822167392490000	      3.28750001977078020000	    -45.73461112062138800000	     -3.96780044924872000000	     -0.00000000000000899814	     -0.00000000000000113077	      2.88595400812251720000	     -3.69604966099720000000	      3.33273311415060870000	      1.20686428386000700000	     -0.05616309360281755000	      0.08746764097665024600	    -11.30653780819051100000	     46.99519218770450400000	    -75.78509229025982600000	   -117.64820045790597000000	    -48.37121425606991200000	     51.67571962836648000000	     60.49420285971120800000	     37.08993987197422400000	      0.00000000000050730394	     -0.00000000000126550378	     57.67371650784110000000	     17.91954571233174700000	    -38.35670147761379700000	    362.06225746559716000000	     65.33165948956791200000	     -0.00000000000007622822	      0.00000000000000326694	     -2.98776747167456010000	    -39.08218350559347000000	     62.32165643331595800000
      0.31433000000000016000	      0.80302443985811112000	      0.80480591113064404000	     -0.21276764535262077000	     -6.46445857831983610000	     -0.31438973578698842000	     -2.72746768725926270000	      3.73964485247575110000	      7.53877590126025070000	      4.95522906422746520000	     -7.24682790572957010000	      7.64585032950294340000	      0.00000000000004744217	     -0.00000000000014059116	     31.35721157224297800000	     -4.44157893231795600000	      3.26814849056463740000	    -45.55324808033701300000	     -3.93550253354169220000	     -0.00000000000000903661	     -0.00000000000000113017	      2.88450792074463580000	     -3.71533697379447810000	      3.36379380503210970000	      1.20716222979892800000	     -0.05818470203772307300	      0.08613855016612585700	    -11.41370658676014400000	     46.44424611871888700000	    -75.60914807608605800000	   -117.27684009268050000000	    -47.93723988571789400000	     50.01971454077115500000	     60.08889541841970300000	     37.02134505465934200000	      0.00000000000050256016	     -0.00000000000124514159	     57.13430962863004900000	     17.39674834951255600000	    -39.04964525173806300000	    363.38794280355575000000	     63.86116087722563600000	     -0.00000000000007779400	      0.00000000000000018528	     -2.79616521518802720000	    -38.06700735382602800000	     61.92162853343845100000
